<svg viewBox="0 0 24 24" xmlns="http://www.w3.org/2000/svg"><path d="M13.983 11.078h2.119c.102 0 .186.084.186.186v2.119a.186.186 0 0 1-.186.186h-2.119a.185.185 0 0 1-.185-.186v-2.119c0-.102.083-.186.185-.186zm-2.954 0h2.119c.102 0 .185.084.185.186v2.119a.186.186 0 0 1-.185.186h-2.119a.186.186 0 0 1-.186-.186v-2.119c0-.102.084-.186.186-.186zm-2.954 0h2.119c.102 0 .185.084.185.186v2.119a.186.186 0 0 1-.185.186H8.075a.186.186 0 0 1-.186-.186v-2.119c0-.102.084-.186.186-.186zm5.908-3.121h2.119c.102 0 .186.084.186.186v2.119a.186.186 0 0 1-.186.186h-2.119a.185.185 0 0 1-.185-.186V8.143c0-.102.083-.186.185-.186zm-2.954 0h2.119c.102 0 .185.084.185.186v2.119a.186.186 0 0 1-.185.186h-2.119a.186.186 0 0 1-.186-.186V8.143c0-.102.084-.186.186-.186zm-2.954 0h2.119c.102 0 .185.084.185.186v2.119a.186.186 0 0 1-.185.186H8.075a.186.186 0 0 1-.186-.186V8.143c0-.102.084-.186.186-.186zm5.908-3.138h2.119c.102 0 .186.084.186.186v2.119a.186.186 0 0 1-.186.186h-2.119a.185.185 0 0 1-.185-.186V5.005c0-.102.083-.186.185-.186zm-2.954 0h2.119c.102 0 .185.084.185.186v2.119a.186.186 0 0 1-.185.186h-2.119a.186.186 0 0 1-.186-.186V5.005c0-.102.084-.186.186-.186zm-2.954 0h2.119c.102 0 .185.084.185.186v2.119a.186.186 0 0 1-.185.186H8.075a.186.186 0 0 1-.186-.186V5.005c0-.102.084-.186.186-.186zm-2.954 3.138h2.119c.102 0 .186.084.186.186v2.119a.186.186 0 0 1-.186.186H5.121a.186.186 0 0 1-.186-.186V8.143c0-.102.084-.186.186-.186zm0 3.121h2.119c.102 0 .186.084.186.186v2.119a.186.186 0 0 1-.186.186H5.121a.186.186 0 0 1-.186-.186v-2.119c0-.102.084-.186.186-.186zm17.416 4.262c0 2.11-.122 4.332-5.06 4.332H5.457c-5.407 0-5.457-3.414-5.457-4.332 0-1.017.302-1.231 1.067-1.231.407 0 2.156.403 4.458.403.944 0 2.56-.102 2.92-.102.196 0 .354.158.354.354 0 .161-.103.3-.247.344l-.057.015c-.01.002-.02.003-.03.003-.167 0-.312-.108-.346-.273a.512.512 0 0 1-.015-.096c-.167.008-.39.01-.613.01h-.002c-2.731 0-4.833-.463-5.485-.625-.337-.082-.604.164-.604.427 0 .773.344 3.701 4.881 3.701h12.574c4.046 0 4.481-2.512 4.481-3.701 0-.263-.267-.509-.604-.427-.652.162-2.754.625-5.485.625h-.002c-.315 0-.62-.004-.876-.016-.068.16-.226.272-.41.272h-.082c-.113 0-.216-.042-.294-.111-.128-.112-.19-.283-.153-.457.045-.21.223-.37.447-.37h.082c.359 0 .694.015 1.03.024 2.302 0 4.051-.403 4.458-.403.765 0 1.067.214 1.067 1.231z"/></svg>
