<svg viewBox="0 0 24 24" xmlns="http://www.w3.org/2000/svg"><path d="M14.25.18l.9.2.73.26.59.3.45.32.34.34.25.34.16.33.1.3.04.26.02.2-.01.13V8.5l-.01.12-.01.06-.02.09-.03.08-.03.07-.04.07-.05.06-.05.05-.05.04-.06.03-.06.03-.07.02-.07.01-.07.01h-2.1l-.07-.01-.07-.01-.07-.02-.06-.03-.06-.03-.05-.04-.05-.05-.05-.06-.04-.07-.03-.07-.03-.08-.02-.09-.01-.06-.01-.12V1.72l-.01-.12-.02-.12-.05-.18-.09-.15-.15-.13-.13-.05-.14-.02h-.54l-.14.02-.13.05-.15.13-.09.15-.05.18-.02.12-.01.12v20.56l.01.12.02.12.05.18.09.15.15.13.13.05.14.02h.54l.14-.02.13-.05.15-.13.09-.15.05-.18.02-.12.01-.12v-6.78l.01-.12.01-.06.02-.09.03-.08.03-.07.04-.07.05-.06.05-.05.05-.04.06-.03.06-.03.07-.02.07-.01.07-.01h2.1l.07.01.07.01.07.02.06.03.06.03.05.04.05.05.05.06.04.07.03.07.03.08.02.09.01.06.01.12v6.78l-.01.13-.02.2-.04.26-.1.3-.16.33-.25.34-.34.34-.45.32-.59.3-.73.26-.9.2-.17.03h-1.13l-.17-.03-.9-.2-.73-.26-.59-.3-.45-.32-.34-.34-.25-.34-.16-.33-.1-.3-.04-.26-.02-.2-.01-.13V1.72l.01-.13.02-.2.04-.26.1-.3.16-.33.25-.34.34-.34.45-.32.59-.3.73-.26.9-.2.17-.03h1.13l.17.03zm7.67 5.18l.9.2.73.26.59.3.45.32.34.34.25.34.16.33.1.3.04.26.02.2-.01.13v13.44l-.01.13-.02.2-.04.26-.1.3-.16.33-.25.34-.34.34-.45.32-.59.3-.73.26-.9.2-.17.03h-1.13l-.17-.03-.9-.2-.73-.26-.59-.3-.45-.32-.34-.34-.25-.34-.16-.33-.1-.3-.04-.26-.02-.2-.01-.13V5.48l.01-.13.02-.2.04-.26.1-.3.16-.33.25-.34.34-.34.45-.32.59-.3.73-.26.9-.2.17-.03h1.13l.17.03zm-1.81 1.54l-.01.12-.02.12-.05.18-.09.15-.15.13-.13.05-.14.02h-.54l-.14-.02-.13-.05-.15-.13-.09-.15-.05-.18-.02-.12-.01-.12v13.44l.01.12.02.12.05.18.09.15.15.13.13.05.14.02h.54l.14-.02.13-.05.15-.13.09-.15.05-.18.02-.12.01-.12V6.9zm-17.98-.26l.9.2.73.26.59.3.45.32.34.34.25.34.16.33.1.3.04.26.02.2-.01.13v13.44l-.01.13-.02.2-.04.26-.1.3-.16.33-.25.34-.34.34-.45.32-.59.3-.73.26-.9.2-.17.03H1.13l-.17-.03-.9-.2-.73-.26-.59-.3-.45-.32-.34-.34-.25-.34-.16-.33-.1-.3-.04-.26-.02-.2-.01-.13V6.9l.01-.13.02-.2.04-.26.1-.3.16-.33.25-.34.34-.34.45-.32.59-.3.73-.26.9-.2.17-.03h1.13l.17.03zm-1.81 1.54l-.01.12-.02.12-.05.18-.09.15-.15.13-.13.05-.14.02h-.54l-.14-.02-.13-.05-.15-.13-.09-.15-.05-.18-.02-.12-.01-.12v13.44l.01.12.02.12.05.18.09.15.15.13.13.05.14.02h.54l.14-.02.13-.05.15-.13.09-.15.05-.18.02-.12.01-.12V8.18z"/></svg>
