<?xml version="1.0" encoding="UTF-8"?>
<svg id="Layer_1" data-name="Layer 1" xmlns="http://www.w3.org/2000/svg" xmlns:xlink="http://www.w3.org/1999/xlink" viewBox="0 0 502.07 361.53" height="70">
  <defs>
    <style>
      .cls-1 {
        filter: url(#drop-shadow-1);
      }

      .cls-2 {
        fill: #1aa14b;
      }
    </style>
    <filter id="drop-shadow-1" filterUnits="userSpaceOnUse">
      <feOffset dx="7" dy="7"/>
      <feGaussianBlur result="blur" stdDeviation="9"/>
      <feFlood flood-color="#231f20" flood-opacity=".42"/>
      <feComposite in2="blur" operator="in"/>
      <feComposite in="SourceGraphic"/>
    </filter>
  </defs>
  <g class="cls-1">
    <path class="cls-2" d="M246.82,113.14h25.12c17.83,0,32.3,14.47,32.3,32.3v163.76h-24.64c-18.09,0-32.78-14.69-32.78-32.78V113.14h0Z" transform="translate(-70.18 179.69) rotate(-32.26)"/>
    <path class="cls-2" d="M144.94,113.14h25.12c17.83,0,32.3,14.47,32.3,32.3v163.76h-24.64c-18.09,0-32.78-14.69-32.78-32.78V113.14h0Z" transform="translate(-85.91 125.3) rotate(-32.26)"/>
    <path class="cls-2" d="M67.52,202.32h25.12c17.83,0,32.3,14.47,32.3,32.3v68.37h-24.64c-18.09,0-32.78-14.69-32.78-32.78v-67.89h0Z" transform="translate(-120.01 90.37) rotate(-32.26)"/>
    <path class="cls-2" d="M432.64,63.42h-69.15l-51.58,75.21c-3.96,5.78-4.13,13.36-.43,19.3l77.5,124.42c9.53,15.3,29.65,19.99,44.96,10.47l23.06-14.33-81.3-127.26,56.94-87.81Z"/>
  </g>
</svg>